<?xml version="1.0" encoding="UTF-8" standalone="no"?>
<!-- Created with Inkscape (http://www.inkscape.org/) -->

<svg
   xmlns:dc="http://purl.org/dc/elements/1.1/"
   xmlns:cc="http://creativecommons.org/ns#"
   xmlns:rdf="http://www.w3.org/1999/02/22-rdf-syntax-ns#"
   xmlns:svg="http://www.w3.org/2000/svg"
   xmlns="http://www.w3.org/2000/svg"
   xmlns:sodipodi="http://sodipodi.sourceforge.net/DTD/sodipodi-0.dtd"
   xmlns:inkscape="http://www.inkscape.org/namespaces/inkscape"
   width="744.09448819"
   height="1052.3622047"
   id="svg2"
   version="1.1"
   inkscape:version="0.48.5 r10040"
   sodipodi:docname="grassHair.svg">
  <defs
     id="defs4" />
  <sodipodi:namedview
     id="base"
     pagecolor="#ffffff"
     bordercolor="#666666"
     borderopacity="1.0"
     inkscape:pageopacity="0.0"
     inkscape:pageshadow="2"
     inkscape:zoom="2.8"
     inkscape:cx="263.39286"
     inkscape:cy="448.03571"
     inkscape:document-units="px"
     inkscape:current-layer="layer1"
     showgrid="false"
     inkscape:window-width="1440"
     inkscape:window-height="847"
     inkscape:window-x="0"
     inkscape:window-y="27"
     inkscape:window-maximized="1">
    <inkscape:grid
       type="xygrid"
       id="grid2987" />
  </sodipodi:namedview>
  <metadata
     id="metadata7">
    <rdf:RDF>
      <cc:Work
         rdf:about="">
        <dc:format>image/svg+xml</dc:format>
        <dc:type
           rdf:resource="http://purl.org/dc/dcmitype/StillImage" />
        <dc:title></dc:title>
      </cc:Work>
    </rdf:RDF>
  </metadata>
  <g
     inkscape:label="Layer 1"
     inkscape:groupmode="layer"
     id="layer1">
    <path
       style="fill:#c79c00;fill-opacity:1;stroke:none"
       d="m 248.0315,540.39671 c 14.17322,0 35.40494,-4.57669 45.17013,-20.67953 9.76519,-16.10284 11.52278,-46.90601 11.52278,-62.8085 0,-15.90247 14.17323,-16.83011 14.17323,0 0,16.83013 -0.24872,49.87486 -13.28037,72.36261 -13.03166,22.48773 -36.32593,27.0279 -57.58577,27.0279 0,-11.92686 0,-3.97562 0,-15.90248 z"
       id="headProfile"
       inkscape:connector-curvature="0"
       sodipodi:nodetypes="czzzzcc"
       inkscape:label="#path2985" />
    <path
       style="fill:#000000;stroke:#000000;stroke-width:21.25984251999999941;stroke-linecap:butt;stroke-linejoin:miter;stroke-opacity:1;stroke-miterlimit:4;stroke-dasharray:none;fill-opacity:1"
       d="m 266.78571,626.29075 c 25.17857,-2.5 71.07143,-9.28571 70.71429,22.14286 -0.35715,31.42857 -34.28571,48.92857 -62.14286,48.57143 -27.85715,-0.35714 -42.5,-24.28572 -43.21429,-38.57143 -0.71429,-14.28571 9.46429,-29.64286 34.64286,-32.14286 z"
       id="footPath"
       inkscape:connector-curvature="0"
       sodipodi:nodetypes="zzzzz"
       inkscape:label="#path3778" />
    <path
       inkscape:label="#path3778"
       sodipodi:nodetypes="zzzzz"
       inkscape:connector-curvature="0"
       id="anklePath"
       d="m 265.92065,631.50422 c 18.13109,-2.11854 51.17848,-7.86886 50.92132,18.76422 -0.25719,26.63308 -24.68912,41.46286 -44.74903,41.16022 -20.05992,-0.30264 -30.60421,-20.58012 -31.11858,-32.68606 -0.51435,-12.10594 6.81522,-25.11984 24.94629,-27.23838 z"
       style="fill:#ff0000;stroke:#ff0000;stroke-width:0.70866141999999999;stroke-linecap:butt;stroke-linejoin:miter;stroke-miterlimit:4;stroke-opacity:1;stroke-dasharray:none;fill-opacity:1" />
  </g>
</svg>
