<?xml version="1.0" encoding="UTF-8" standalone="no"?>
<!-- Created with Inkscape (http://www.inkscape.org/) -->

<svg
   xmlns:dc="http://purl.org/dc/elements/1.1/"
   xmlns:cc="http://creativecommons.org/ns#"
   xmlns:rdf="http://www.w3.org/1999/02/22-rdf-syntax-ns#"
   xmlns:svg="http://www.w3.org/2000/svg"
   xmlns="http://www.w3.org/2000/svg"
   xmlns:sodipodi="http://sodipodi.sourceforge.net/DTD/sodipodi-0.dtd"
   xmlns:inkscape="http://www.inkscape.org/namespaces/inkscape"
   width="744.09448819"
   height="1052.3622047"
   id="svg2"
   version="1.1"
   inkscape:version="0.48.5 r10040"
   sodipodi:docname="mobilePhoneStand.svg">
  <defs
     id="defs4" />
  <sodipodi:namedview
     id="base"
     pagecolor="#ffffff"
     bordercolor="#666666"
     borderopacity="1.0"
     inkscape:pageopacity="0.0"
     inkscape:pageshadow="2"
     inkscape:zoom="1.4"
     inkscape:cx="338.9669"
     inkscape:cy="133.63125"
     inkscape:document-units="px"
     inkscape:current-layer="layer1"
     showgrid="false"
     inkscape:window-width="1440"
     inkscape:window-height="847"
     inkscape:window-x="0"
     inkscape:window-y="27"
     inkscape:window-maximized="1" />
  <metadata
     id="metadata7">
    <rdf:RDF>
      <cc:Work
         rdf:about="">
        <dc:format>image/svg+xml</dc:format>
        <dc:type
           rdf:resource="http://purl.org/dc/dcmitype/StillImage" />
        <dc:title />
      </cc:Work>
    </rdf:RDF>
  </metadata>
  <g
     inkscape:label="Layer 1"
     inkscape:groupmode="layer"
     id="layer1">
    <path
       style="fill:#000000;fill-opacity:1;stroke:#000000;stroke-width:1.87169945px;stroke-linecap:butt;stroke-linejoin:miter;stroke-opacity:1"
       d="M 644.1875 653.75 C 623.69524 653.481 603.26341 676.92439 597.25 708.6875 C 593.28555 729.62785 596.52351 749.28582 604.71875 762.125 L 517.3125 721.78125 L 519.4375 698.625 L 509.28125 699.59375 L 500.8125 728.875 L 612.3125 795.15625 C 613.57296 826.03774 607.84183 855.54676 604.21875 868.875 C 600.59566 882.20324 593.68289 912.04341 579.1875 933.15625 C 579.1875 933.15625 555.38659 893.50102 543.625 880.21875 C 533.52559 868.81355 524.86325 854.96999 511.0625 856.84375 C 497.26175 858.71751 489.23879 869.47226 474.4375 891.5625 C 459.63624 913.65273 460.74393 919.41004 447.3125 939.71875 C 441.45339 948.5779 439.17371 954.41956 432.4375 961.34375 C 425.82997 965.15793 401.70954 957.64622 397.4375 951.0625 C 396.91234 947.52272 396.92958 947.16542 397.90625 940.65625 C 396.35388 936.58908 391.16188 934.51657 386.59375 935.28125 C 384.34706 937.65307 382.3137 944.63328 381.5 951.96875 C 380.6863 959.3042 409.51178 977.94611 415.25 978.84375 C 420.98822 979.74142 424.63471 981.15479 437.65625 979.34375 C 450.32066 969.85414 465.01074 943.24014 475.5 926.03125 C 485.98927 908.82235 498.08251 884.74565 513.4375 884.46875 C 524.81917 884.2635 533.01956 904.12906 540.0625 920.84375 C 547.95963 939.58567 555.47705 950.68396 566.1875 961.96875 C 574.46561 970.69078 586.81471 978.38687 601.875 978.53125 C 616.9353 978.67556 630.23399 965.28186 639.6875 950.15625 C 649.14102 935.03064 656.60979 918.33578 661.90625 892.96875 C 667.20271 867.60172 667.54701 829.91255 660.5 807.4375 C 656.40366 794.373 650.08491 781.30541 645.46875 772.53125 C 659.66492 764.20419 671.76482 745.44565 676.15625 722.25 C 682.57056 688.36936 670.07393 657.86037 648.28125 654.125 C 646.9192 653.89156 645.55363 653.76793 644.1875 653.75 z M 639.625 666.9375 C 640.45826 666.90907 641.29866 666.95986 642.125 667.09375 C 655.34638 669.23592 662.32745 691.80803 657.71875 717.5 C 653.11005 743.19197 638.65888 762.26717 625.4375 760.125 C 612.21612 757.98283 605.23505 735.44197 609.84375 709.75 C 614.16441 685.66378 627.12607 667.36388 639.625 666.9375 z M 634.8125 795.40625 C 635.2799 795.39241 635.77918 795.39635 636.28125 795.40625 C 638.69116 795.45375 640.99878 797.19103 643.21875 800.53125 C 651.3198 830.46629 650.72359 863.79251 646.875 883.46875 C 643.02641 903.14501 631.46287 940.93903 613 957.65625 C 607.05331 959.37851 592.30416 948.95831 590.78125 942.625 C 605.2656 917.17302 614.99918 893.00131 619.5625 872.71875 C 624.12581 852.43619 627.13598 828.03414 627.8125 797.625 C 629.15913 796.19417 631.54072 795.50313 634.8125 795.40625 z "
       id="outline"
       inkscape:label="#path3859" />
    <rect
       style="opacity:0.98999999;fill:#fe0f0f;fill-opacity:1;stroke:none"
       id="phone"
       width="36.409435"
       height="446.45245"
       x="648.87866"
       y="355.47729"
       ry="8.7285509"
       inkscape:transform-center-y="-154.54191"
       transform="matrix(0.95974606,0.28086918,-0.28090671,0.95973508,0,0)"
       inkscape:transform-center-x="-45.233142" />
    <path
       inkscape:label="#path3859"
       id="path2984"
       d="m 325.98945,644.65863 c -20.49226,-0.269 -40.92409,23.17439 -46.9375,54.9375 -3.96445,20.94035 -0.72649,40.59832 7.46875,53.4375 l -87.40625,-40.34375 2.125,-23.15625 -10.15625,0.96875 -8.46875,29.28125 111.5,66.28125 c 1.26046,30.88149 -4.47067,60.39051 -8.09375,73.71875 -3.62309,13.32824 -10.53586,43.16841 -25.03125,64.28125 0,0 -23.80091,-39.65523 -35.5625,-52.9375 -10.09941,-11.4052 -18.76175,-25.24876 -32.5625,-23.375 -13.80075,1.87376 -21.82371,12.62851 -36.625,34.71875 -14.80126,22.09023 -13.69357,27.84754 -27.125,48.15625 -5.85911,8.85915 -8.13879,14.70081 -14.875,21.625 -6.60753,3.81418 -30.72796,-3.69753 -35,-10.28125 -0.52516,-3.53978 -0.50792,-3.89708 0.46875,-10.40625 -1.55237,-4.06717 -6.74437,-6.13968 -11.3125,-5.375 -2.24669,2.37182 -4.28005,9.35203 -5.09375,16.6875 -0.8137,7.33545 28.01178,25.97736 33.75,26.875 5.73822,0.89767 9.38471,2.31104 22.40625,0.5 12.66441,-9.48961 27.35449,-36.10361 37.84375,-53.3125 10.48927,-17.2089 22.58251,-41.2856 37.9375,-41.5625 11.38167,-0.20525 19.58206,19.66031 26.625,36.375 7.89713,18.74192 15.41455,29.84021 26.125,41.125 8.27811,8.72203 20.62721,16.41812 35.6875,16.5625 15.0603,0.14431 28.35899,-13.24939 37.8125,-28.375 9.45352,-15.12561 16.92229,-31.82047 22.21875,-57.1875 5.29646,-25.36703 5.64076,-63.0562 -1.40625,-85.53125 -4.09634,-13.0645 -10.41509,-26.13209 -15.03125,-34.90625 14.19617,-8.32706 26.29607,-27.0856 30.6875,-50.28125 6.41431,-33.88064 -6.08232,-64.38963 -27.875,-68.125 -1.36205,-0.23344 -2.72762,-0.35707 -4.09375,-0.375 z m -4.5625,13.1875 c 0.83326,-0.0284 1.67366,0.0224 2.5,0.15625 13.22138,2.14217 20.20245,24.71428 15.59375,50.40625 -4.6087,25.69197 -19.05987,44.76717 -32.28125,42.625 -13.22138,-2.14217 -20.20245,-24.68303 -15.59375,-50.375 4.32066,-24.08622 17.28232,-42.38612 29.78125,-42.8125 z m -4.8125,128.46875 c 0.4674,-0.0138 0.96668,-0.01 1.46875,0 2.40991,0.0475 4.71753,1.78478 6.9375,5.125 8.10105,29.93504 7.50484,63.26126 3.65625,82.9375 -3.84859,19.67626 -15.41213,57.47028 -33.875,74.1875 -5.94669,1.72226 -20.69584,-8.69794 -22.21875,-15.03125 14.48435,-25.45198 24.21793,-49.62369 28.78125,-69.90625 4.56331,-20.28256 7.57348,-44.68461 8.25,-75.09375 1.34663,-1.43083 3.72822,-2.12187 7,-2.21875 z"
       style="fill:#000000;fill-opacity:1;stroke:#000000;stroke-width:1.87169945px;stroke-linecap:butt;stroke-linejoin:miter;stroke-opacity:1"
       inkscape:connector-curvature="0" />
    <path
       transform="matrix(0.98432853,0.17634442,-0.17634442,0.98432853,136.48344,-38.00589)"
       sodipodi:type="arc"
       style="fill:#0100ff;fill-opacity:0.48387095;stroke:none"
       id="headOuter"
       sodipodi:cx="310.11682"
       sodipodi:cy="699.81897"
       sodipodi:rx="40.592579"
       sodipodi:ry="62.908112"
       d="m 350.7094,699.81897 a 40.592579,62.908112 0 1 1 -81.18516,0 40.592579,62.908112 0 1 1 81.18516,0 z"
       inkscape:label="#path3758" />
    <path
       d="m 333.20539,699.81897 a 23.088573,46.773647 0 1 1 -46.17714,0 23.088573,46.773647 0 1 1 46.17714,0 z"
       sodipodi:ry="46.773647"
       sodipodi:rx="23.088573"
       sodipodi:cy="699.81897"
       sodipodi:cx="310.11682"
       id="headInner"
       style="fill:#ff0000;fill-opacity:0.48387098;stroke:none"
       sodipodi:type="arc"
       transform="matrix(0.98432853,0.17634442,-0.17634442,0.98432853,133.26916,-38.720176)"
       inkscape:label="#path2988" />
    <path
       style="fill:#ffa500;fill-opacity:0.48387098;stroke:none"
       d="m 190,689.50504 -8.0981,30.22253 125.32453,76.8306 -0.86221,-35.13 L 200,711.6479 l 2.5,-23.21429 z"
       id="arm"
       inkscape:connector-curvature="0"
       sodipodi:nodetypes="ccccccc"
       inkscape:label="#path3764" />
    <path
       style="fill:#00ff09;fill-opacity:0.48387098000000001;stroke:none;stroke-width:1px;stroke-linecap:butt;stroke-linejoin:miter;stroke-opacity:1"
       d="m 293.44931,760.93317 c 0,0 6.91348,16.99301 -6.81853,94.44927 -9.48162,53.48164 -34.10906,71.30618 -36.47255,92.12226 -1.31041,11.54123 11.99158,21.28177 33.69464,22.78258 21.70305,1.50082 55.31906,-36.73195 63.13453,-96.21702 7.81546,-59.48507 -5.4624,-85.95378 -19.69798,-113.8947 -12.21528,-2.18203 -33.84011,0.75761 -33.84011,0.75761 z"
       id="path3766"
       inkscape:connector-curvature="0"
       sodipodi:nodetypes="csszzcc" />
    <path
       style="fill:#ff00b6;fill-opacity:0.48387098;stroke:none"
       d="m 310.47397,788.743 c 3.62219,-1.75507 9.7724,-3.62481 13.78763,3.15565 2.70395,13.5213 11.29261,42.45015 3.37971,82.71783 -7.9129,40.26768 -19.86268,58.96731 -33.44115,73.36165 -10.97758,-0.83841 -19.54045,-10.85071 -20.58746,-14.21479 8.69211,-16.54432 20.48208,-35.95362 28.36163,-68.78445 6.06175,-25.25684 8.49964,-76.23589 8.49964,-76.23589 z"
       id="bodyInner"
       inkscape:connector-curvature="0"
       sodipodi:nodetypes="cczccsc"
       inkscape:label="#path3768" />
    <path
       style="fill:#ff00b6;fill-opacity:0.48387098;stroke:none"
       d="m 262.44616,964.67836 c -11.41672,-5.26559 -27.26759,-24.45904 -31.19616,-31.24475 -3.92857,-6.78572 -19.64286,-42.32142 -19.64286,-42.32142 0,0 -7.44435,-16.1168 -17.32143,-14.82144 -10.89285,1.42857 -18.92857,13.57143 -18.92857,13.57143 0,0 -32.14286,51.78572 -39.64285,63.57143 -6.10267,9.58992 -15.69262,17.70921 -15.69262,17.70921 0,0 -17.92214,1.13456 -24.28758,-0.79722 -7.377406,-2.2389 -15.878296,-8.94573 -21.091233,-12.62627 -5.212937,-3.68054 -9.655975,-7.6743 -11.785714,-12.67857 -1.352619,-3.17827 1.541878,-15.22678 5.021664,-19.79079 3.858594,-0.5234 4.858912,-0.26113 7.687545,0.86221 3.478322,1.38136 4.520138,3.56519 5.104604,5.16775 0.02056,2.89483 -1.570036,5.81003 -0.564493,10.26336 1.321216,1.48601 1.144459,3.58063 12.115618,7.26913 8.403129,2.82513 15.385029,4.77658 21.457669,2.77049 C 124.78003,940.15883 147.5,895.57647 147.5,895.57647 c 0,0 22.34246,-36.87886 28.57143,-41.07143 9.28571,-6.24999 19.49748,-11.48173 31.42857,-3.39285 10.53571,7.14285 19.62632,20.88589 28.21428,32.32142 11.53997,15.36637 31.14015,48.51759 31.14015,48.51759 z"
       id="leg"
       inkscape:connector-curvature="0"
       sodipodi:nodetypes="cscscscszscsccsccssacc"
       inkscape:label="#path3770" />
    <path
       style="fill:#0100ff;fill-opacity:0.48387098;stroke:none"
       d="m 325.28125,643.1875 c -20.71637,-0.43857 -41.16241,23.12621 -46.90625,55.1875 -6.12677,34.19871 6.80767,65.14034 28.875,69.09375 22.06733,3.95341 44.90448,-20.58254 51.03125,-54.78125 6.12677,-34.19871 -6.77642,-65.10909 -28.84375,-69.0625 -1.37921,-0.24709 -2.77516,-0.40826 -4.15625,-0.4375 z M 321,658.59375 c 0.79217,-0.0203 1.59052,0.047 2.375,0.1875 12.55163,2.24865 19.02414,24.66621 14.46875,50.09375 -4.55539,25.42754 -18.41712,44.24865 -30.96875,42 -12.55163,-2.24865 -19.05539,-24.69746 -14.5,-50.125 4.27068,-23.83832 16.74251,-41.85161 28.625,-42.15625 z"
       id="head"
       inkscape:label="#path3772"
       inkscape:connector-curvature="0" />
    <path
       style="fill:#00ff09;fill-opacity:0.48387098;stroke:none"
       d="m 314.03125,759.375 c -10.35756,0.15935 -20.59375,1.5625 -20.59375,1.5625 0,0 6.91951,16.98124 -6.8125,94.4375 -9.48162,53.48164 -34.10526,71.30892 -36.46875,92.125 -1.31041,11.54123 11.98444,21.28044 33.6875,22.78125 21.70305,1.50082 55.34078,-36.73368 63.15625,-96.21875 7.81546,-59.48507 -5.23063,-83.4087 -19.46621,-111.34962 -2.30204,-1.94457 -8.79456,-3.41031 -13.50254,-3.33788 z m 2.25,27.71875 c 2.7797,-0.1 5.71018,0.99849 7.96875,4.8125 2.70395,13.5213 11.31915,42.45107 3.40625,82.71875 -7.9129,40.26768 -19.89028,58.94941 -33.46875,73.34375 -10.97758,-0.83841 -19.51549,-10.85467 -20.5625,-14.21875 8.69211,-16.54432 20.4642,-35.95042 28.34375,-68.78125 6.06175,-25.25684 8.5,-76.21875 8.5,-76.21875 1.58471,-0.76784 3.65051,-1.57848 5.8125,-1.65625 z"
       id="body"
       inkscape:label="#path3777"
       inkscape:connector-curvature="0"
       sodipodi:nodetypes="scsssscsscsccscs" />
  </g>
</svg>
