<?xml version="1.0" encoding="UTF-8" standalone="no"?>
<!-- Created with Inkscape (http://www.inkscape.org/) -->

<svg
   xmlns:dc="http://purl.org/dc/elements/1.1/"
   xmlns:cc="http://creativecommons.org/ns#"
   xmlns:rdf="http://www.w3.org/1999/02/22-rdf-syntax-ns#"
   xmlns:svg="http://www.w3.org/2000/svg"
   xmlns="http://www.w3.org/2000/svg"
   xmlns:sodipodi="http://sodipodi.sourceforge.net/DTD/sodipodi-0.dtd"
   xmlns:inkscape="http://www.inkscape.org/namespaces/inkscape"
   width="744.09448819"
   height="1052.3622047"
   id="svg2"
   version="1.1"
   inkscape:version="0.48.5 r10040"
   sodipodi:docname="wonkyChestOfDraws.svg">
  <defs
     id="defs4" />
  <sodipodi:namedview
     id="base"
     pagecolor="#ffffff"
     bordercolor="#666666"
     borderopacity="1.0"
     inkscape:pageopacity="0.0"
     inkscape:pageshadow="2"
     inkscape:zoom="0.98994949"
     inkscape:cx="332.48303"
     inkscape:cy="640.50215"
     inkscape:document-units="px"
     inkscape:current-layer="layer1"
     showgrid="false"
     inkscape:window-width="1440"
     inkscape:window-height="847"
     inkscape:window-x="0"
     inkscape:window-y="27"
     inkscape:window-maximized="1">
    <inkscape:grid
       type="xygrid"
       id="grid3820" />
  </sodipodi:namedview>
  <metadata
     id="metadata7">
    <rdf:RDF>
      <cc:Work
         rdf:about="">
        <dc:format>image/svg+xml</dc:format>
        <dc:type
           rdf:resource="http://purl.org/dc/dcmitype/StillImage" />
        <dc:title></dc:title>
      </cc:Work>
    </rdf:RDF>
  </metadata>
  <g
     inkscape:label="Layer 1"
     inkscape:groupmode="layer"
     id="layer1">
    <path
       style="fill:#000000;fill-opacity:0.49769586;stroke:#000000;stroke-width:1px;stroke-linecap:butt;stroke-linejoin:miter;stroke-opacity:1"
       d="m 251.07144,182.71933 c 0,0 21.07142,35.35714 23.92856,77.49999 2.72114,40.13681 -36.14841,104.27596 -34.28571,161.78572 1.62028,50.0251 31.07143,85.71429 32.85714,110.35714 1.75827,24.26408 -0.73678,45.19685 -0.73678,45.19685 l 21.25984,0 c 3.54331,-14.17323 1.95163,-21.49606 2.14286,-34.0045 43.21429,11.78572 104.83408,2.02194 104.83408,2.02194 l -0.67773,31.98256 21.25984,0 c 1.42858,-12.85714 2.32143,-20.29245 0,-53.1496 -2.32143,-32.85714 -19.51069,-67.76154 -18.08212,-100.61868 1.42857,-32.85715 37.85715,-89.28571 48.57144,-135.71428 10.27929,-44.5436 -8.92858,-89.28572 -8.92858,-89.28572 0,0 -26.32568,19.05957 -56.89031,20.01795 -30.56462,0.95837 -85.07069,-35.99724 -108.46683,-40.37509 -23.39614,-4.37786 -26.7857,4.28572 -26.7857,4.28572 z"
       id="main"
       inkscape:connector-curvature="0"
       sodipodi:nodetypes="cssscccccczzsczzc"
       inkscape:label="#path3050" />
    <path
       style="fill:#ff0000;fill-opacity:1;stroke:none"
       d="m 234.86065,203.98879 c -1.91537,0.079 -17.06433,-13.88221 -17.65526,-15.30845 -0.59093,-1.42624 19.08866,-32.93968 50.48504,-31.81838 42.4264,1.51522 96.28272,44.90705 122.61624,43.25798 30.30457,-1.89775 41.07748,-13.83058 49.94652,-25.81491 12.62909,-17.0651 11.20517,-26.39656 12.4177,-27.15683 1.21253,-0.76027 18.24672,1.52023 19.51414,4.66299 1.26742,3.14276 -4.47655,19.90218 -14.69797,34.48786 -8.87952,12.67084 -31.801,35.08526 -68.24657,34.97282 -37.2316,-0.11487 -91.91862,-41.65085 -120.03484,-42.69164 -22.21388,-0.8223 -32.42963,25.32955 -34.345,25.40856 z"
       id="top"
       inkscape:connector-curvature="0"
       sodipodi:nodetypes="zzssszzsssz"
       inkscape:label="#path3822" />
    <path
       style="fill:#ff0000;fill-opacity:0.49769586;stroke:#000000;stroke-width:1px;stroke-linecap:butt;stroke-linejoin:miter;stroke-opacity:1"
       d="m 281.35811,203.0331 c 0,0 7.81356,24.57893 10.33612,38.44182 2.88257,15.84133 1.20948,22.26894 1.93365,24.90719 0.78459,2.85836 0.96425,2.97433 11.38217,9.3566 10.41791,6.38226 45.8472,19.15191 56.62456,22.03952 23.35674,6.25803 50.221,6.51653 56.41536,5.70378 3.38234,-0.44379 9.12084,-1.1265 11.97915,-4.69363 2.8583,-3.56713 9.13098,-20.20042 9.50979,-36.42676 0.37881,-16.22634 -2.75841,-26.05808 -4.8595,-33.52192 -0.93618,-3.32568 -3.26133,-1.2058 -3.26133,-1.2058 0,0 -19.12265,10.80004 -41.85108,10.80004 -22.72844,0 -52.99116,-12.61733 -67.83341,-20.21791 -7.80067,-3.99465 -30.64433,-15.82699 -38.60958,-17.43181 -2.21518,-0.44631 -1.7659,2.24888 -1.7659,2.24888 z"
       id="drawer1"
       inkscape:connector-curvature="0"
       sodipodi:nodetypes="csszsszzscsssc"
       inkscape:label="#path3824" />
    <path
       style="fill:#0003ff;fill-opacity:0.49769586;stroke:#000000;stroke-width:1px;stroke-linecap:butt;stroke-linejoin:miter;stroke-opacity:1"
       d="m 353.70381,256.15702 c -0.40905,0.56476 -1.83993,8.6473 -1.49577,9.58786 0.34416,0.94056 7.08447,4.02178 13.87298,5.53639 6.78852,1.51461 13.62524,1.4626 14.50154,1.12518 0.87629,-0.33741 3.50514,-8.14253 2.76712,-9.31636 -0.74387,-1.18312 -8.10115,-0.14583 -15.22438,-1.72451 -7.12324,-1.57867 -14.01243,-5.77333 -14.42149,-5.20856 z"
       id="handle1"
       inkscape:connector-curvature="0"
       sodipodi:nodetypes="zzszssz"
       inkscape:label="#path3826" />
    <path
       style="fill:#ff0000;stroke:#000000;stroke-width:1px;stroke-linecap:butt;stroke-linejoin:miter;stroke-opacity:1;fill-opacity:0.49803922"
       d="m 293.2401,289.90622 c -3.27969,0.82143 -12.41769,39.18674 -12.41769,39.18674 0,0 -3.413,10.46212 -3.06109,13.63706 0.47443,4.28046 2.73086,9.55817 16.19307,15.15229 13.46221,5.59412 94.00891,26.63729 96.53085,26.76904 3.41824,0.17857 6.24179,-7.97986 11.41805,-20.55584 4.96411,-12.06055 18.93805,-39.25939 18.32017,-40.55839 -0.61788,-1.299 -0.86457,-1.19339 -2.97444,-1.57651 -2.10986,-0.38311 -37.42726,-0.361 -68.96611,-9.95358 -31.53885,-9.59258 -51.76312,-22.92224 -55.04281,-22.10081 z"
       id="drawer2"
       inkscape:connector-curvature="0"
       sodipodi:nodetypes="zcszsszzzz"
       inkscape:label="#path3847" />
    <path
       style="fill:#ff0000;stroke:#000000;stroke-width:1px;stroke-linecap:butt;stroke-linejoin:miter;stroke-opacity:1;fill-opacity:0.49803922"
       d="m 269.71073,368.55019 c -1.64987,-0.22918 -2.18135,-0.0132 -2.52538,0.94887 -0.34403,0.96212 -7.07107,16.05475 -8.08122,31.78391 -1.01015,15.72916 0.0919,26.98351 1.5765,29.48351 1.03155,1.73711 -1.81635,4.08611 16.34102,10.30548 14.82023,5.07631 30.34671,10.1921 54.97191,11.02502 24.6252,0.83293 49.33903,-3.53554 49.33903,-3.53554 0,0 3.95431,-0.96653 4.54568,-4.04061 -0.16702,-3.37526 -0.44462,-10.80029 -0.0429,-19.57562 0.40168,-8.77534 0.25772,-20.25351 -0.96722,-21.60604 -1.22494,-1.35253 -50.56409,-11.99819 -73.10825,-19.61131 -22.54416,-7.61312 -40.39927,-14.94849 -42.04914,-15.17767 z"
       id="drawer3"
       inkscape:connector-curvature="0"
       sodipodi:nodetypes="czzsszccszzzc"
       inkscape:label="drawer3" />
    <path
       style="fill:#ff0000;stroke:#000000;stroke-width:1px;stroke-linecap:butt;stroke-linejoin:miter;stroke-opacity:1;fill-opacity:0.49803922"
       d="m 266.02726,455.5406 c -0.89286,0.54206 6.16996,18.32717 13.44612,32.77387 7.26416,14.42287 9.76564,27.69783 10.4404,29.17194 0.67476,1.47411 17.58527,9.85419 55.19329,11.20885 37.60801,1.35465 55.71428,-3.7268 57.14286,-6.7879 1.42857,-3.06109 -1.56665,-22.44306 -5.00219,-31.01885 -3.43553,-8.5758 -7.52012,-23.22609 -7.52012,-23.22609 0,0 -0.56635,-2.70395 -3.09173,-2.70395 -2.52539,0 -15.78646,6.62202 -58.75999,4.066 -42.97353,-2.55602 -60.95578,-14.02593 -61.84864,-13.48387 z"
       id="drawer4"
       inkscape:connector-curvature="0"
       sodipodi:nodetypes="zszzzzcszz"
       inkscape:label="#path3851" />
    <path
       style="fill:none;fill-opacity:0.49769585999999999;stroke:#000000;stroke-width:4;stroke-linecap:butt;stroke-linejoin:miter;stroke-opacity:1;stroke-miterlimit:4;stroke-dasharray:none"
       d="m 453.8125,147 c -0.5843,0.004 -1.00468,0.0612 -1.15625,0.15625 -1.21253,0.76027 0.22284,10.09115 -12.40625,27.15625 -8.86904,11.98433 -19.63293,23.91475 -49.9375,25.8125 -26.33352,1.64907 -80.1986,-41.73478 -122.625,-43.25 -31.39638,-1.1213 -51.05968,30.38626 -50.46875,31.8125 0.59093,1.42624 15.74088,15.3915 17.65625,15.3125 1.3183,-0.0544 6.54935,-12.47659 16.9375,-19.9375 3.57055,6.35924 20.63012,38.43491 23.1875,76.15625 2.72114,40.13681 -36.14395,104.27149 -34.28125,161.78125 1.62028,50.0251 31.05804,85.73215 32.84375,110.375 1.75827,24.26408 -0.71875,45.1875 -0.71875,45.1875 l 21.25,0 c 3.54331,-14.17323 1.96502,-21.49156 2.15625,-34 43.21429,11.78572 104.8125,2 104.8125,2 l -0.65625,32 21.25,0 c 1.42858,-12.85714 2.32143,-20.2991 0,-53.15625 -2.32143,-32.85714 -19.52232,-67.76786 -18.09375,-100.625 1.42857,-32.85715 37.87946,-89.29018 48.59375,-135.71875 8.96959,-38.86824 -4.51256,-77.84419 -8.09375,-87.15625 5.99573,-5.15797 10.49887,-10.40041 13.4375,-14.59375 10.22142,-14.58568 15.95492,-31.35724 14.6875,-34.5 -1.10899,-2.74992 -14.28492,-4.84235 -18.375,-4.8125 z"
       id="back"
       inkscape:connector-curvature="0"
       inkscape:label="#path3853" />
    <path
       inkscape:label="#path3826"
       sodipodi:nodetypes="zzszssz"
       inkscape:connector-curvature="0"
       id="handle2"
       d="m 331.70381,330.15702 c -0.40905,0.56476 -1.83993,8.6473 -1.49577,9.58786 0.34416,0.94056 7.26304,2.95035 14.05155,4.46496 6.78852,1.51461 13.44667,2.53403 14.32297,2.19661 0.87629,-0.33741 3.50514,-8.14253 2.76712,-9.31636 -0.74387,-1.18312 -7.92258,-1.21726 -15.04581,-2.79594 -7.12324,-1.57867 -14.191,-4.7019 -14.60006,-4.13713 z"
       style="fill:#0003ff;fill-opacity:0.49769586;stroke:#000000;stroke-width:1px;stroke-linecap:butt;stroke-linejoin:miter;stroke-opacity:1" />
    <path
       style="fill:#0003ff;fill-opacity:0.49769586;stroke:#000000;stroke-width:1px;stroke-linecap:butt;stroke-linejoin:miter;stroke-opacity:1"
       d="m 308.48952,408.72845 c -0.40905,0.56476 -1.83993,8.6473 -1.49577,9.58786 0.34416,0.94056 6.72733,2.77178 13.51584,4.28639 6.78852,1.51461 13.98238,2.7126 14.85868,2.37518 0.87629,-0.33741 3.50514,-8.14253 2.76712,-9.31636 -0.74387,-1.18312 -7.74401,-1.21726 -14.86724,-2.79594 -7.12324,-1.57867 -14.36957,-4.7019 -14.77863,-4.13713 z"
       id="handle3"
       inkscape:connector-curvature="0"
       sodipodi:nodetypes="zzszssz"
       inkscape:label="#path3826" />
    <path
       style="fill:#0003ff;fill-opacity:0.49769586;stroke:#000000;stroke-width:1px;stroke-linecap:butt;stroke-linejoin:miter;stroke-opacity:1"
       d="m 327.48908,491.36992 c -0.2874,0.63535 -0.0674,8.84062 0.45853,9.69299 0.5259,0.85237 7.74739,2.51843 14.70175,2.64007 6.95437,0.12163 13.6416,-1.30116 14.43237,-1.80756 0.79077,-0.50638 1.79999,-8.68025 0.84144,-9.68212 -0.96614,-1.00979 -7.96564,1.4827 -15.26077,1.36546 -7.29514,-0.11723 -14.8859,-2.84421 -15.17332,-2.20884 z"
       id="handle4"
       inkscape:connector-curvature="0"
       sodipodi:nodetypes="zzszssz"
       inkscape:label="#path3826" />
  </g>
</svg>
