<?xml version="1.0" encoding="UTF-8" standalone="no"?>
<!-- Created with Inkscape (http://www.inkscape.org/) -->

<svg
   xmlns:dc="http://purl.org/dc/elements/1.1/"
   xmlns:cc="http://creativecommons.org/ns#"
   xmlns:rdf="http://www.w3.org/1999/02/22-rdf-syntax-ns#"
   xmlns:svg="http://www.w3.org/2000/svg"
   xmlns="http://www.w3.org/2000/svg"
   xmlns:xlink="http://www.w3.org/1999/xlink"
   xmlns:sodipodi="http://sodipodi.sourceforge.net/DTD/sodipodi-0.dtd"
   xmlns:inkscape="http://www.inkscape.org/namespaces/inkscape"
   width="744.09448819"
   height="1052.3622047"
   id="svg2"
   version="1.1"
   inkscape:version="0.48.5 r10040"
   sodipodi:docname="7 Segment Display.svg">
  <defs
     id="defs4" />
  <sodipodi:namedview
     id="base"
     pagecolor="#ffffff"
     bordercolor="#666666"
     borderopacity="1.0"
     inkscape:pageopacity="0.0"
     inkscape:pageshadow="2"
     inkscape:zoom="3.959798"
     inkscape:cx="249.08125"
     inkscape:cy="767.53009"
     inkscape:document-units="px"
     inkscape:current-layer="layer1"
     showgrid="false"
     inkscape:window-width="1440"
     inkscape:window-height="847"
     inkscape:window-x="0"
     inkscape:window-y="27"
     inkscape:window-maximized="1">
    <inkscape:grid
       type="xygrid"
       id="grid2995"
       units="mm"
       empspacing="5"
       visible="true"
       enabled="true"
       snapvisiblegridlinesonly="true"
       spacingx="0.5mm"
       spacingy="0.5mm" />
  </sodipodi:namedview>
  <metadata
     id="metadata7">
    <rdf:RDF>
      <cc:Work
         rdf:about="">
        <dc:format>image/svg+xml</dc:format>
        <dc:type
           rdf:resource="http://purl.org/dc/dcmitype/StillImage" />
        <dc:title></dc:title>
      </cc:Work>
    </rdf:RDF>
  </metadata>
  <g
     inkscape:label="Layer 1"
     inkscape:groupmode="layer"
     id="layer1">
    <path
       style="fill:#000000;fill-opacity:1;stroke:none"
       d="m 26.574793,14.173206 10e-6,28.346457 14.17323,0 0,-21.259843 -10.62993,-10.629921 z"
       id="path3793"
       inkscape:connector-curvature="0"
       sodipodi:nodetypes="cccccc" />
    <path
       sodipodi:nodetypes="ccccccc"
       inkscape:connector-curvature="0"
       id="use3822"
       d="m 26.574803,104.52754 0,-23.031499 14.173228,0 0,17.716535 -7.08662,7.086614 -5.314954,0 z"
       style="fill:#000000;fill-opacity:1;stroke:none" />
    <path
       sodipodi:nodetypes="cccccc"
       inkscape:connector-curvature="0"
       id="use3828"
       d="m 42.523572,114.89326 21.25983,0 10e-6,-14.17323 -21.25984,0 -7.086614,7.08661 z"
       style="fill:#000000;fill-opacity:1;stroke:none" />
    <path
       style="fill:#000000;fill-opacity:1;stroke:none"
       d="m 26.574801,44.291316 14.17323,0 0,35.433071 -14.17323,0 z"
       id="rect3844"
       inkscape:connector-curvature="0" />
    <g
       id="regular"
       inkscape:label="#g3936">
      <g
         transform="translate(-426.96851,15.944882)"
         id="g3894">
        <use
           x="0"
           y="0"
           xlink:href="#path3793"
           id="use3799"
           transform="matrix(0,1,1,0,561.6142,-19.488213)"
           width="744.09448"
           height="1052.3622" />
        <use
           height="1052.3622"
           width="744.09448"
           transform="matrix(0,1,-1,0,650.19683,-19.488213)"
           id="use3801"
           xlink:href="#path3793"
           y="0"
           x="0" />
        <use
           x="0"
           y="0"
           xlink:href="#rect3844"
           id="use3859"
           transform="matrix(0,1,-0.30000025,0,626.27953,-19.488211)"
           width="744.09448"
           height="1052.3622" />
      </g>
      <g
         transform="translate(-426.9685,18.228347)"
         id="g3863">
        <use
           x="0"
           y="0"
           xlink:href="#path3793"
           id="use3820"
           transform="translate(540.35434,-0.51181133)"
           width="744.09448"
           height="1052.3622" />
        <use
           x="0"
           y="0"
           xlink:href="#use3822"
           id="use3842"
           transform="translate(540.35433,-30.629922)"
           width="744.09448"
           height="1052.3622" />
        <use
           height="1052.3622"
           width="744.09448"
           transform="matrix(-1,0,0,-0.40000009,607.6772,70.866115)"
           id="use3861"
           xlink:href="#rect3844"
           y="0"
           x="0" />
      </g>
      <g
         transform="translate(4.409449e-7,1.2359389)"
         id="g3931">
        <use
           x="0"
           y="0"
           xlink:href="#use3828"
           id="use3878"
           transform="translate(113.38194,-13.909028)"
           width="744.09448"
           height="1052.3622" />
        <use
           height="1052.3622"
           width="744.09448"
           transform="matrix(0,1,-1,0,240.94487,60.236201)"
           id="use3880"
           xlink:href="#rect3844"
           y="0"
           x="0" />
        <use
           height="1052.3622"
           width="744.09448"
           transform="matrix(-1,0,0,1,244.49208,-13.909028)"
           id="use3882"
           xlink:href="#use3828"
           y="0"
           x="0" />
      </g>
      <use
         height="1052.3622"
         width="744.09448"
         transform="matrix(-1,0,0,1,357.87402,-4.8517495e-7)"
         id="use3915"
         xlink:href="#g3863"
         y="0"
         x="0" />
      <use
         height="1052.3622"
         width="744.09448"
         transform="matrix(1,0,0,-1,1.0944882e-6,190.26712)"
         id="use3925"
         xlink:href="#g3863"
         y="0"
         x="0" />
      <use
         x="0"
         y="0"
         xlink:href="#g3863"
         id="use3927"
         transform="matrix(-1,0,0,-1,357.87401,190.26712)"
         width="744.09448"
         height="1052.3622" />
      <use
         height="1052.3622"
         width="744.09448"
         transform="matrix(1,0,0,-1,7.7897585e-6,190.26712)"
         id="use3929"
         xlink:href="#g3894"
         y="0"
         x="0" />
    </g>
    <use
       x="0"
       y="0"
       xlink:href="#regular"
       id="italic-with-clones"
       transform="matrix(1,0,-0.07705516,1,107.33053,0)"
       width="744.09448"
       height="1052.3622"
       inkscape:label="#use4009" />
    <path
       style="fill:#000000;fill-opacity:1;stroke:none"
       d="M 254.375 183.03125 L 250.5625 186.5625 L 260.375 197.21875 L 279.84375 197.21875 L 281.625 197.21875 L 290.5 197.21875 L 306.4375 197.21875 L 317.875 186.5625 L 314.625 183.03125 L 291.59375 183.03125 L 282.71875 183.03125 L 280.9375 183.03125 L 254.375 183.03125 z M 248.65625 188.34375 L 244.84375 191.875 L 242.875 217.21875 L 242.65625 220.25 L 241.78125 231.375 L 240.1875 252.125 L 241.8125 253.90625 L 247.15625 253.90625 L 254.78125 246.8125 L 255.96875 231.375 L 256.8125 220.25 L 257.0625 217.21875 L 258.46875 198.96875 L 248.65625 188.34375 z M 319.53125 188.34375 L 308.0625 198.96875 L 306.65625 217.21875 L 306.4375 220.25 L 305.75 229.09375 L 305.5625 231.375 L 304.375 246.8125 L 310.9375 253.90625 L 316.25 253.90625 L 318.15625 252.125 L 319.71875 231.375 L 319.75 231.375 L 320.59375 220.25 L 320.84375 217.21875 L 322.78125 191.875 L 319.53125 188.34375 z M 256.4375 248.0625 L 248.8125 255.125 L 255.375 262.21875 L 276.625 262.21875 L 296.09375 262.21875 L 301.4375 262.21875 L 309.0625 255.125 L 302.5 248.0625 L 297.1875 248.0625 L 277.71875 248.0625 L 256.4375 248.0625 z M 241.625 256.375 L 239.71875 258.15625 L 238.15625 278.875 L 238.125 278.875 L 237.03125 293.0625 L 235.09375 318.375 L 238.34375 321.90625 L 249.8125 311.28125 L 251.4375 290.03125 L 252.125 281.1875 L 253.5 263.46875 L 246.9375 256.375 L 241.625 256.375 z M 310.71875 256.375 L 303.09375 263.46875 L 301.71875 281.1875 L 300.8125 293.0625 L 299.40625 311.28125 L 309.21875 321.90625 L 313.03125 318.375 L 315.21875 290.03125 L 316.09375 278.875 L 317.6875 258.15625 L 316.03125 256.375 L 310.71875 256.375 z M 322.96875 312.84375 C 318.92403 312.84375 315.625 316.11154 315.625 320.15625 C 315.625 324.20097 318.92403 327.46875 322.96875 327.46875 C 327.01347 327.46875 330.28125 324.20097 330.28125 320.15625 C 330.28125 316.11154 327.01347 312.84375 322.96875 312.84375 z M 251.4375 313.0625 L 240 323.6875 L 243.25 327.25 L 271.625 327.25 L 280.46875 327.25 L 303.5 327.25 L 307.3125 323.6875 L 297.5 313.0625 L 281.5625 313.0625 L 272.6875 313.0625 L 251.4375 313.0625 z "
       id="italic" />
  </g>
</svg>
